Simulation
nRows=32
nColumns=15
endheader
time  TH_x TH_y TH_z SC_y  SC_z  SC_x  AC_y  AC_z  AC_x  GH_y  GH_z  GH_yy  EL_x  PS_y
0.0  0.000000  0.000000  0.000000  -28.14714205172199  -1.6225920331205232  14.039288912379154  55.45010715732853  -7.6070203119089586  -15.848221830340409  -166.89980945577116  4.044099191954446  -169.28413982411107  25.61087491398912  0.000000
0.015  0.000000  0.000000  0.000000  -28.187316932252344  -1.5283117206940735  13.972372182339761  55.431748690023255  -7.299057242112099  -15.77751552010965  -167.10643008600036  3.7895653820134023  -169.17788599141636  25.579522669331002  0.000000
0.03  0.000000  0.000000  0.000000  -28.13280982759706  -1.4427607954969894  13.940400604757036  55.44476387181829  -7.064692197684339  -15.755800167027994  -167.48716488770987  3.4861281312919  -168.90082994349254  25.568295519429473  0.000000
0.045  0.000000  0.000000  0.000000  -28.13495777922426  -1.3556538880741156  13.947029914400849  55.472371204144984  -6.909466853665771  -15.736747405785518  -168.08061140199328  3.1131318548746756  -168.43172345159493  25.539169147104992  0.000000
0.06  0.000000  0.000000  0.000000  -28.15107531085905  -1.2764697591708398  13.985479659655873  55.476673549869126  -6.802200218724696  -15.728034805741393  -168.94640556255996  2.7050426655536275  -167.7431980087271  25.50566715765733  0.000000
0.075  0.000000  0.000000  0.000000  -28.177731352306637  -1.2031771935960722  14.04330849127805  55.488814692067024  -6.739214319672637  -15.725312819022589  -170.61215929395948  2.2562889212452477  -166.29657331762638  25.45815836063528  0.000000
0.09  0.000000  0.000000  0.000000  -28.21349129560312  -1.1329152646430536  14.118574200582595  55.496954221606  -6.7100737148198935  -15.726608120769693  -173.685772774997  1.7796312649096182  -163.48721626730278  25.408823764161905  0.000000
0.105  0.000000  0.000000  0.000000  -28.255360404058884  -1.0632892139414123  14.207503236299212  55.50350278872781  -6.710837820292256  -15.727868274183058  -179.91974601527218  1.2851099465996685  -157.56002462801138  25.353964353695773  0.000000
0.12  0.000000  0.000000  0.000000  -28.303535563409714  -0.9930615948061805  14.307948188371771  55.51050825966113  -6.737160791636343  -15.729593190128044  164.62126371251145  0.8056331817970341  -142.44993769139128  25.296608415899577  0.000000
0.135  0.000000  0.000000  0.000000  -28.35815733184725  -0.9201896510025641  14.420010111983881  55.51665013367411  -6.786434109623484  -15.729039833874555  118.89514517910598  0.5088159024812479  -97.11161209403866  25.236580993786248  0.000000
0.15  0.000000  0.000000  0.000000  -28.41775644478109  -0.8431370853064947  14.54261306585158  55.524021698248056  -6.855945213448793  -15.726283429927017  66.13875988834353  0.7558872429501508  -44.78055744272741  25.174047325707505  0.000000
0.16499999999999998  0.000000  0.000000  0.000000  -28.482403907462853  -0.7611675719626652  14.6769621205169  55.53228067889695  -6.944225464965582  -15.720345819460267  47.142226924912684  1.2895683482186346  -26.24245364331444  25.109132491212204  0.000000
0.18  0.000000  0.000000  0.000000  -28.551473612352613  -0.6748911895831986  14.818250932709061  55.543655178279195  -7.045834036749267  -15.7095093989237  39.38414070950752  1.8994297634792061  -18.973039788759653  25.040628293544927  0.000000
0.195  0.000000  0.000000  0.000000  -28.627073672663776  -0.5851331625199724  14.963819759165592  55.5586909110364  -7.156431235159604  -15.691196989322872  35.19692757691786  2.5452449662835734  -15.298442797198451  24.96769835475159  0.000000
0.21  0.000000  0.000000  0.000000  -28.7099163865916  -0.49108781184814465  15.107895382475427  55.57938378175753  -7.2689005115873835  -15.662780493547846  32.50728245622623  3.2171815472270535  -13.1396565386696  24.89123669914236  0.000000
0.22499999999999998  0.000000  0.000000  0.000000  -28.801173786700776  -0.39229973258598555  15.254634810619427  55.60568462052116  -7.382414322309879  -15.626143065136425  30.550903288581367  3.9101088930360306  -11.726246093151182  24.81166866882227  0.000000
0.24  0.000000  0.000000  0.000000  -28.898753243716964  -0.29171462901482675  15.4056811895212  55.63813500795837  -7.492183127453456  -15.585616861167333  29.019775131196422  4.620064671166023  -10.747970598877606  24.72842234881382  0.000000
0.255  0.000000  0.000000  0.000000  -29.00193815941679  -0.19268358440376904  15.55608938116122  55.678359801959246  -7.58812788011143  -15.540389136782645  27.75551968758377  5.343986717958676  -10.043233555086571  24.64055857680905  0.000000
0.27  0.000000  0.000000  0.000000  -29.110023616319005  -0.09636994317089059  15.697340530890122  55.7288400084674  -7.659781557144979  -15.488305157792654  26.697942925154496  6.081135747616428  -9.549902384735505  24.548696526979484  0.000000
0.285  0.000000  0.000000  0.000000  -29.224545150149044  -0.0032036656084007418  15.83050367876218  55.78995355152236  -7.705562566111296  -15.430213164640762  25.803324977832126  6.831226184383421  -9.22146086592672  24.454177407879172  0.000000
0.3  0.000000  0.000000  0.000000  -29.346025657052632  0.08593275512232296  15.955008981932524  55.86197540305375  -7.7241995182575645  -15.3668288674924  25.055600871386538  7.594830277518291  -9.040406330539971  24.357693322972853  0.000000
0.315  0.000000  0.000000  0.000000  -29.47554976181364  0.17080808937990027  16.072752423077006  55.94457660518709  -7.717633561010219  -15.29835686037602  24.436998824760735  8.372429825066058  -8.986204813805923  24.25909334556727  0.000000
0.32999999999999996  0.000000  0.000000  0.000000  -29.612264456756346  0.25235929139305796  16.184832470623146  56.037587188697636  -7.688164386121262  -15.225208986199396  23.935611827267913  9.1637782620049  -9.04440624930413  24.158374118554175  0.000000
0.345  0.000000  0.000000  0.000000  -29.75657944150413  0.3325248930153801  16.292725712293883  56.140036211710445  -7.638191408220976  -15.146077673397155  23.53034454799211  9.967478793275028  -9.190781412442917  24.05559196297438  0.000000
0.36  0.000000  0.000000  0.000000  -29.907997716932538  0.41338499707812293  16.396226819149557  56.251174472579066  -7.569390021345408  -15.059793058673035  23.20509045910137  10.782313155668387  -9.407026781875823  23.95088354353592  0.000000
0.375  0.000000  0.000000  0.000000  -30.066044883557023  0.49686139013651337  16.49744535238524  56.370161191923415  -7.484483546172096  -14.965978177984235  22.940817475840188  11.606123618811072  -9.671845701878597  23.844749076657287  0.000000
0.39  0.000000  0.000000  0.000000  -30.22694041104357  0.5847496792755349  16.60126682830462  56.496569198172374  -7.389138244005144  -14.867057617903818  22.728292979291492  12.4358994441893  -9.975446714822422  23.736871258946817  0.000000
0.40499999999999997  0.000000  0.000000  0.000000  -30.387914204704856  0.6786891161126969  16.714508848006304  56.62924222534783  -7.289509629339193  -14.764658178960127  22.562550599750494  13.266677894612233  -10.31299667161812  23.625942113272963  0.000000
0.42  0.000000  0.000000  0.000000  -30.54534269712016  0.7801138513534618  16.840530946590132  56.76529599266346  -7.188280032231383  -14.658708495590336  22.441260913433887  14.09241197999806  -10.68314893179242  23.511706185185094  0.000000
0.435  0.000000  0.000000  0.000000  -30.69567912499476  0.8910351471983874  16.980304998946192  56.902650666170096  -7.084954911313085  -14.54819822840588  22.359565318233113  14.907155390751312  -11.081864843381457  23.394732029836554  0.000000
0.44999999999999996  0.000000  0.000000  0.000000  -30.8341678715485  1.0138092075264626  17.13084610783438  57.04220283803741  -6.9769105854119  -14.432294069933254  22.314884566092562  15.707399537804672  -11.507737125418359  23.274576872422763  0.000000
0.46499999999999997  0.000000  0.000000  0.000000  -30.96126417815951  1.1488648038998144  17.285474897880576  57.18555586610437  -6.857765983382031  -14.308015897912068  22.299569457284903  16.49227129185161  -11.952996935980423  23.15078397300431  0.000000
